<svg xmlns="http://www.w3.org/2000/svg" version="1.1" xmlns:xlink="http://www.w3.org/1999/xlink" xmlns:svgjs="http://svgjs.dev/svgjs" viewBox="0 0 1920 1080" style="overflow: hidden; height: 85vh;" class="overflow-hidden rounded-md drop-shadow-lg transition duration-300"><rect width="1920" height="1080" fill="#d1b8f5"></rect><g clip-path="url(&quot;#SvgjsClipPath2069&quot;)"><g transform="matrix(1.0585805814703064,0.4493407977626647,-0.4493407977626647,1.0585805814703064,186.40667258034478,-463.0006798461236)"><path d="M0,-1080C0,-1012.5,0,-810,0,-675C0,-540,0,-405,0,-270C0,-135,0,0,0,135C0,270,0,405,0,540C0,675,0,810,0,945C0,1080,0,1215,0,1350C0,1485,0,1620,0,1755C0,1890,0,2092.5,0,2160L 1920 2160 L 1920 -1080 Z" fill="url(&quot;#SvgjsLinearGradient2066&quot;)"></path><path d="M640,-1080C640,-990,640,-720,640,-540C640,-360,640,-180.0000000000001,640,-1.1368683772161603e-13C640,179.9999999999999,640,360,640,540C640,720,640,900,640,1080C640,1260,640,1440,640,1620C640,1800,640,2070,640,2160L 1920 2160 L 1920 -1080 Z" fill="url(&quot;#SvgjsLinearGradient2067&quot;)"></path><path d="M1280,-1080C1280,-990,1280,-720,1280,-540C1280,-360,1280,-180.0000000000001,1280,-1.1368683772161603e-13C1280,179.9999999999999,1280,360,1280,540C1280,720,1280,900,1280,1080C1280,1260,1280,1440,1280,1620C1280,1800,1280,2070,1280,2160L 1920 2160 L 1920 -1080 Z" fill="url(&quot;#SvgjsLinearGradient2068&quot;)"></path></g></g><defs><linearGradient x1="0.1" y1="0" x2="0" y2="1" id="SvgjsLinearGradient2066"><stop stop-color="#d1b8f5" offset="0"></stop><stop stop-color="#c7b8f5" offset="0"></stop></linearGradient><linearGradient x1="0.1" y1="0" x2="0" y2="1" id="SvgjsLinearGradient2067"><stop stop-color="#e6d9fa" offset="0"></stop><stop stop-color="#e0d9fa" offset="0.3333333333333333"></stop></linearGradient><linearGradient x1="0.1" y1="0" x2="0" y2="1" id="SvgjsLinearGradient2068"><stop stop-color="#fcfafe" offset="0"></stop><stop stop-color="#fbfafe" offset="0.6666666666666666"></stop></linearGradient><clipPath id="SvgjsClipPath2069"><rect width="1920" height="1080"></rect></clipPath></defs></svg>