<?xml version="1.0" encoding="iso-8859-1"?>
<!-- Generator: Adobe Illustrator 19.0.0, SVG Export Plug-In . SVG Version: 6.00 Build 0)  -->
<svg version="1.1" id="Layer_1" xmlns="http://www.w3.org/2000/svg" xmlns:xlink="http://www.w3.org/1999/xlink" x="0px" y="0px"
	 viewBox="0 0 511.98 511.98" style="enable-background:new 0 0 511.98 511.98;" xml:space="preserve">
<path style="fill:#FFD2A6;" d="M508.599,107.93c0.672-1.562,16.047-38.732-24.889-79.667S405.605,2.709,404.043,3.381
	c-1.234,0.531-2.359,1.297-3.312,2.25L121.582,284.788c-3.086,3.078-3.984,7.734-2.258,11.75
	c0.172,0.406,17.241,40.403,16.788,67.496c-0.047,2.812,1.031,5.562,3,7.594c0.039,0.031,0.078,0.078,0.125,0.125
	c1.953,1.953,4.602,3.062,7.367,3.125c28.17,0.437,68.434,17.592,68.833,17.779c4.015,1.719,8.671,0.828,11.757-2.266
	L506.35,111.243C507.303,110.29,508.068,109.173,508.599,107.93z"/>
<path style="fill:#A85D5D;" d="M181.93,360.221l-30.17-30.186c-2.008-2-4.719-3.125-7.546-3.125c-2.828,0-5.547,1.125-7.547,3.125
	L3.127,463.591c-2,2-3.125,4.703-3.125,7.531c0,2.844,1.125,5.547,3.125,7.547l30.178,30.17c4.164,4.188,10.921,4.188,15.085,0
	l133.54-133.524C186.102,371.143,186.102,364.378,181.93,360.221z"/>
<path style="fill:#ED5564;" d="M257.394,254.587c-4.171-4.172-4.171-10.922,0-15.093l211.24-211.231
	c4.155-4.164,10.921-4.164,15.077,0c4.172,4.164,4.172,10.921,0,15.085L272.488,254.587
	C268.316,258.751,261.558,258.751,257.394,254.587z"/>
<path style="fill:#A85D5D;" d="M183.797,372.784l34.678-64.841c2.218-4.156,1.46-9.25-1.867-12.577
	c-3.32-3.328-8.429-4.078-12.57-1.859l-64.856,34.67L183.797,372.784z"/>
<g>
	<polygon style="fill:#7F4545;" points="18.634,448.093 109.16,448.093 130.495,426.749 39.969,426.749 	"/>
	<path style="fill:#7F4545;" d="M61.35,405.36c0.289,0.016,0.57,0.047,0.867,0.047h89.613l21.342-21.343H82.646L61.35,405.36z"/>
</g>
<path style="fill:#ED5564;" d="M469.555,405.407c0-17.094-6.656-33.186-18.749-45.264c-24.952-24.951-65.574-24.951-90.527,0
	c-12.092,12.078-18.748,28.17-18.748,45.264c0,17.092,6.656,33.17,18.748,45.263l0,0c24.953,24.952,65.575,24.952,90.527,0
	C462.899,438.577,469.555,422.499,469.555,405.407z"/>
<g>
	<path style="fill:#E6E9ED;" d="M428.182,382.783c-4.172-4.188-4.172-10.937,0-15.093l7.53-7.547c4.172-4.172,10.922-4.172,15.094,0
		s4.172,10.922,0,15.078l-7.547,7.562C439.103,386.938,432.339,386.938,428.182,382.783z"/>
	<path style="fill:#E6E9ED;" d="M391.966,418.984c-4.172-4.172-4.172-10.921,0-15.077l12.062-12.078
		c4.172-4.172,10.922-4.172,15.094,0s4.172,10.922,0,15.078l-12.062,12.077C402.886,423.155,396.136,423.155,391.966,418.984z"/>
	<path style="fill:#E6E9ED;" d="M360.279,450.67c-4.171-4.171-4.171-10.921,0-15.093l7.547-7.547c4.156-4.156,10.922-4.156,15.094,0
		c4.155,4.172,4.155,10.938,0,15.094l-7.547,7.546C371.201,454.842,364.451,454.842,360.279,450.67z"/>
</g>
<g>
</g>
<g>
</g>
<g>
</g>
<g>
</g>
<g>
</g>
<g>
</g>
<g>
</g>
<g>
</g>
<g>
</g>
<g>
</g>
<g>
</g>
<g>
</g>
<g>
</g>
<g>
</g>
<g>
</g>
</svg>
