<?xml version="1.0" encoding="iso-8859-1"?>
<!-- Generator: Adobe Illustrator 19.0.0, SVG Export Plug-In . SVG Version: 6.00 Build 0)  -->
<svg version="1.1" id="Layer_1" xmlns="http://www.w3.org/2000/svg" xmlns:xlink="http://www.w3.org/1999/xlink" x="0px" y="0px"
	 viewBox="0 0 512 512" style="enable-background:new 0 0 512 512;" xml:space="preserve">
<g>
	<path style="fill:#E15050;" d="M158.891,87.419H123.58c-4.875,0-8.828,3.953-8.828,8.828v17.655h52.966V96.247
		C167.718,91.372,163.766,87.419,158.891,87.419z"/>
	<path style="fill:#E15050;" d="M388.412,87.419h-35.311c-4.875,0-8.828,3.953-8.828,8.828v17.655h52.966V96.247
		C397.239,91.372,393.287,87.419,388.412,87.419z"/>
</g>
<path style="fill:#FFC855;" d="M508.319,349.391L421.413,122.1c-3.921-10.253-13.759-17.025-24.736-17.025h-47.05
	c-8.854,0-17.124,4.425-22.035,11.793l-4.552,6.828c-3.274,4.912-8.787,7.862-14.69,7.862H203.65c-5.904,0-11.415-2.951-14.69-7.862
	l-4.552-6.828c-4.912-7.368-13.181-11.793-22.035-11.793h-47.05c-10.977,0-20.817,6.772-24.736,17.025L3.681,349.391
	c-11.526,30.143,4.991,63.727,35.902,73.001c18.986,5.696,39.558,0.069,53.003-14.496l83.96-90.956h158.908l83.96,90.956
	c13.445,14.566,34.017,20.191,53.003,14.496C503.327,413.119,519.845,379.535,508.319,349.391z"/>
<g>
	<path style="fill:#FAAF50;" d="M375.997,123.696l4.552-6.828c4.484-6.728,11.808-10.821,19.782-11.512
		c-1.201-0.167-2.418-0.28-3.655-0.28h-47.05c-8.854,0-17.124,4.425-22.035,11.793l-4.552,6.828
		c-3.274,4.912-8.787,7.862-14.69,7.862h52.958C367.21,131.558,372.723,128.607,375.997,123.696z"/>
	<path style="fill:#FAAF50;" d="M56.639,349.391L143.544,122.1c3.478-9.098,11.624-15.428,21.083-16.745
		c-0.759-0.066-1.485-0.28-2.253-0.28h-47.05c-10.977,0-20.817,6.772-24.736,17.025L3.681,349.391
		c-11.526,30.143,4.991,63.727,35.902,73.001c14.074,4.222,29.005,2.194,41.273-5.056C57.704,404.071,46.67,375.461,56.639,349.391z
		"/>
	<path style="fill:#FAAF50;" d="M472.371,407.896L357.328,286.571c-8.334-8.79-19.915-13.768-32.029-13.768H211.857v44.139h123.597
		l82.636,89.522c11.875,12.865,29.21,20.074,46.548,17.633c7.224-1.017,13.69-3.453,19.463-6.76
		C479.82,414.806,475.849,411.665,472.371,407.896z"/>
</g>
<circle style="fill:#5F505A;" cx="145.647" cy="215.419" r="44.139"/>
<g>
	<path style="fill:#84787E;" d="M145.649,202.18c-7.31,0-13.242-5.931-13.242-13.242v-17.655c0-7.31,5.931-13.242,13.242-13.242
		s13.242,5.931,13.242,13.242v17.655C158.891,196.249,152.959,202.18,145.649,202.18z"/>
	<path style="fill:#84787E;" d="M145.649,272.802c-7.31,0-13.242-5.931-13.242-13.242v-17.655c0-7.31,5.931-13.242,13.242-13.242
		s13.242,5.931,13.242,13.242v17.655C158.891,266.871,152.959,272.802,145.649,272.802z"/>
	<path style="fill:#84787E;" d="M119.166,228.697H101.51c-7.31,0-13.242-5.931-13.242-13.242s5.931-13.242,13.242-13.242h17.655
		c7.31,0,13.242,5.931,13.242,13.242S126.476,228.697,119.166,228.697z"/>
	<path style="fill:#84787E;" d="M189.788,228.697h-17.655c-7.31,0-13.242-5.931-13.242-13.242s5.931-13.242,13.242-13.242h17.655
		c7.31,0,13.242,5.931,13.242,13.242S197.098,228.697,189.788,228.697z"/>
	<circle style="fill:#84787E;" cx="366.34" cy="215.419" r="57.38"/>
	<circle style="fill:#84787E;" cx="313.374" cy="294.902" r="30.897"/>
</g>
<g>
	<circle style="fill:#5F505A;" cx="313.374" cy="294.902" r="13.242"/>
	<circle style="fill:#5F505A;" cx="366.34" cy="182.315" r="16.552"/>
	<circle style="fill:#5F505A;" cx="366.34" cy="248.523" r="16.552"/>
	<circle style="fill:#5F505A;" cx="399.444" cy="215.419" r="16.552"/>
	<circle style="fill:#5F505A;" cx="333.236" cy="215.419" r="16.552"/>
</g>
<path style="fill:#FAAF50;" d="M255.996,193.352c-9.751,0-17.655,7.904-17.655,17.655l0,0c0,9.75,7.904,17.655,17.655,17.655
	s17.655-7.905,17.655-17.655l0,0C273.651,201.257,265.746,193.352,255.996,193.352z"/>
<circle style="fill:#84787E;" cx="198.613" cy="294.902" r="30.897"/>
<circle style="fill:#5F505A;" cx="198.613" cy="294.902" r="13.242"/>
<g>
</g>
<g>
</g>
<g>
</g>
<g>
</g>
<g>
</g>
<g>
</g>
<g>
</g>
<g>
</g>
<g>
</g>
<g>
</g>
<g>
</g>
<g>
</g>
<g>
</g>
<g>
</g>
<g>
</g>
</svg>
