<?xml version="1.0" encoding="utf-8"?>
<svg viewBox="0 0 100 100" width="100px" height="100px" xmlns="http://www.w3.org/2000/svg">
  <circle cx="56.5" cy="55.824" r="8.183" fill="#39c1d7"/>
  <path fill="#39c1d7" d="M 101.5 55.824 C 101.5 49.542 93.934 44.103 82.192 40.867 C 85.211 29.066 84.282 19.786 78.889 16.638 C 76.761 15.396 74.18 15.168 71.22 15.96 C 66.756 17.154 61.642 20.647 56.5 25.777 C 51.358 20.647 46.244 17.156 41.78 15.96 C 38.82 15.167 36.239 15.396 34.111 16.638 C 28.718 19.786 27.789 29.065 30.808 40.867 C 19.066 44.103 11.5 49.542 11.5 55.824 C 11.5 62.11 19.066 67.547 30.808 70.785 C 27.789 82.584 28.718 91.866 34.111 95.014 C 35.411 95.773 36.879 96.154 38.501 96.154 C 39.532 96.154 40.628 95.998 41.78 95.69 C 46.244 94.494 51.358 91.003 56.5 85.873 C 61.642 91.003 66.756 94.494 71.22 95.69 C 72.372 95.998 73.468 96.154 74.499 96.154 C 76.121 96.154 77.589 95.773 78.889 95.014 C 84.282 91.866 85.21 82.584 82.192 70.785 C 93.934 67.547 101.5 62.11 101.5 55.824 Z M 72.126 19.347 C 72.974 19.122 73.759 19.007 74.483 19.007 C 75.488 19.007 76.372 19.226 77.12 19.665 C 80.735 21.776 81.471 29.506 78.781 40.014 C 75.072 39.18 71.025 38.554 66.725 38.166 C 64.202 34.526 61.576 31.214 58.931 28.313 C 63.627 23.605 68.235 20.39 72.126 19.347 Z M 69.071 63.188 C 67.693 65.603 66.242 67.914 64.755 70.129 C 62.113 70.326 59.359 70.434 56.5 70.434 C 53.641 70.434 50.887 70.326 48.247 70.129 C 46.759 67.914 45.308 65.603 43.93 63.188 C 42.506 60.69 41.227 58.232 40.082 55.825 C 41.227 53.421 42.506 50.962 43.93 48.463 C 45.31 46.047 46.759 43.735 48.248 41.52 C 50.888 41.323 53.641 41.215 56.5 41.215 C 59.359 41.215 62.112 41.323 64.753 41.52 C 66.241 43.735 67.692 46.048 69.071 48.463 C 70.496 50.96 71.775 53.42 72.919 55.825 C 71.775 58.232 70.496 60.69 69.071 63.188 Z M 74.785 59.968 C 76.002 62.844 77.008 65.615 77.822 68.245 C 75.162 68.839 72.29 69.334 69.225 69.699 C 70.209 68.149 71.178 66.563 72.116 64.924 C 73.064 63.266 73.949 61.612 74.785 59.968 Z M 56.5 80.787 C 54.588 78.673 52.68 76.333 50.815 73.8 C 52.676 73.89 54.57 73.942 56.5 73.942 C 58.43 73.942 60.324 73.89 62.185 73.8 C 60.32 76.332 58.412 78.673 56.5 80.787 Z M 43.774 69.699 C 40.71 69.334 37.837 68.839 35.177 68.245 C 35.991 65.615 36.997 62.843 38.214 59.968 C 39.05 61.612 39.936 63.266 40.882 64.924 C 41.822 66.564 42.79 68.15 43.774 69.699 Z M 38.215 51.683 C 36.998 48.805 35.991 46.036 35.178 43.403 C 37.838 42.809 40.711 42.316 43.776 41.951 C 42.791 43.499 41.823 45.086 40.886 46.726 C 39.936 48.384 39.051 50.04 38.215 51.683 Z M 56.5 30.863 C 58.412 32.977 60.32 35.319 62.185 37.852 C 60.324 37.761 58.43 37.709 56.5 37.709 C 54.57 37.709 52.676 37.761 50.815 37.851 C 52.68 35.319 54.588 32.977 56.5 30.863 Z M 72.116 46.727 C 71.178 45.086 70.209 43.5 69.225 41.952 C 72.29 42.317 75.162 42.81 77.823 43.403 C 77.009 46.037 76.003 48.805 74.786 51.683 C 73.949 50.04 73.064 48.384 72.116 46.727 Z M 35.88 19.665 C 36.629 19.226 37.511 19.007 38.517 19.007 C 39.239 19.007 40.028 19.122 40.874 19.347 C 44.765 20.39 49.373 23.604 54.069 28.312 C 51.424 31.213 48.798 34.526 46.275 38.165 C 41.975 38.551 37.927 39.179 34.219 40.013 C 31.529 29.505 32.265 21.775 35.88 19.665 Z M 15.006 55.824 C 15.006 51.622 21.318 47.128 31.761 44.252 C 32.895 47.946 34.381 51.833 36.211 55.824 C 34.381 59.816 32.895 63.705 31.761 67.398 C 21.318 64.521 15.006 60.029 15.006 55.824 Z M 40.874 92.303 C 38.849 92.843 37.168 92.736 35.88 91.987 C 32.265 89.874 31.53 82.146 34.219 71.636 C 37.927 72.47 41.975 73.098 46.274 73.486 C 48.796 77.124 51.424 80.438 54.068 83.34 C 49.373 88.044 44.765 91.261 40.874 92.303 Z M 77.12 91.987 C 75.832 92.739 74.152 92.843 72.126 92.303 C 68.235 91.261 63.627 88.044 58.931 83.339 C 61.576 80.438 64.202 77.123 66.725 73.485 C 71.025 73.097 75.072 72.469 78.78 71.634 C 81.471 82.146 80.735 89.874 77.12 91.987 Z M 81.239 67.398 C 80.105 63.705 78.619 59.816 76.789 55.824 C 78.619 51.833 80.105 47.944 81.239 44.252 C 91.682 47.128 97.994 51.622 97.994 55.824 C 97.994 60.029 91.682 64.521 81.239 67.398 Z"/>
</svg>